<svg xmlns="http://www.w3.org/2000/svg" viewBox="0 0 487.6 487.6"><title>Twitter</title><path d="M153.2 440.9c183.3 0 283.5-152 283.5-283.5 0-4.3 0-8.6-.2-12.8 19.4-14 36.3-31.7 49.8-51.7-17.9 8-37.1 13.2-57.3 15.7 20.6-12.2 36.3-31.9 43.9-55.2-19.2 11.5-40.6 19.6-63.4 24.1C391.3 58 365.5 46 336.9 46c-55 0-99.7 44.7-99.7 99.7 0 7.8 1 15.4 2.5 22.7-82.8-4.1-156.3-43.9-205.4-104.2-8.5 14.8-13.4 31.9-13.4 50.2 0 34.6 17.7 65.1 44.3 83-16.3-.6-31.7-5.1-45.1-12.4v1.4c0 48.2 34.4 88.6 79.9 97.8-8.4 2.3-17.1 3.5-26.2 3.5-6.4 0-12.6-.6-18.7-1.7 12.6 39.6 49.6 68.4 93.1 69.2C114 381.8 71 397.8 24.4 397.8c-8 0-15.9-.4-23.7-1.4 43.9 28 96.4 44.5 152.5 44.5"/></svg>
